<svg xmlns="http://www.w3.org/2000/svg" viewBox="0 0 69.98 67.12"><defs><style>.cls-1{isolation:isolate;}.cls-2{mix-blend-mode:multiply;}.cls-3{fill:#db3130;}</style></defs><title>Recurso 10</title><g class="cls-1"><g id="Capa_2" data-name="Capa 2"><g id="Layer_1" data-name="Layer 1"><g class="cls-2"><path class="cls-3" d="M0,64.21c.16-.73.29-1.46.49-2.18A14.17,14.17,0,0,1,5,55.24c3.91-3.44,8.56-5.48,13.46-7,2.12-.66,4.3-1.17,6.5-1.76a1.65,1.65,0,0,0-.52-1.68,16.89,16.89,0,0,1-4.86-9.49c-.12-.68-.3-1-1-1.19a8.32,8.32,0,0,1-6.37-7.48,18.13,18.13,0,0,1,1-7.18,1.74,1.74,0,0,1,.7-.87,1.21,1.21,0,0,0,.6-1.18A17.6,17.6,0,0,1,17.3,8a15.42,15.42,0,0,1,8.45-6.47,28.84,28.84,0,0,1,18.19-.07A16,16,0,0,1,54.66,12.17a16.11,16.11,0,0,1,.88,5.43,1.14,1.14,0,0,0,.5,1,3,3,0,0,1,.88,1.22,16.93,16.93,0,0,1,.93,6.72,8.23,8.23,0,0,1-6.62,7.69.84.84,0,0,0-.76.83,17.5,17.5,0,0,1-5.1,10c-.31.3-.33.9-.5,1.39,1.87.48,3.57.88,5.25,1.35a40.43,40.43,0,0,1,13.15,6c2.87,2.09,5.24,4.62,6.21,8.15A19.06,19.06,0,0,1,70,65.6c.07,1-.48,1.47-1.44,1.51H1.89a1.77,1.77,0,0,1-1.89-1ZM47.72,35.87l-.25-.14c-1.72.92-3.43,1.87-5.17,2.75a1.2,1.2,0,0,0-.75,1.14A3.75,3.75,0,0,1,37,42.93a3.67,3.67,0,0,1-2.9-3A3.72,3.72,0,0,1,35.75,36a3.82,3.82,0,0,1,4.3.13.84.84,0,0,0,.7.11q3.54-1.85,7-3.77a1,1,0,0,0,.33-.51,16,16,0,0,1,.64-1.6c.59-1.07,1.35-2.05,1.85-3.16a3.5,3.5,0,0,0-.4-3.63,1.12,1.12,0,0,0-1.15-.53,26,26,0,0,1-7.94-.52,29.91,29.91,0,0,1-8.36-3.06.9.9,0,0,0-.76-.05,18.47,18.47,0,0,1-10.67,3.45,1.77,1.77,0,0,0-1.87,1.33,6.27,6.27,0,0,0-.2,2.46,8.19,8.19,0,0,0,2,3.68,2.44,2.44,0,0,1,.59,1.25A19.3,19.3,0,0,0,22.71,37a12.72,12.72,0,0,0,3.53,5.9c3.47,3.11,7.62,3.47,11.93,2.77a10.79,10.79,0,0,0,8.21-6.32C46.92,38.23,47.28,37,47.72,35.87ZM36.36,64.4h31c-.19-.74-.31-1.44-.54-2.09-1.1-3.09-3.36-5.2-6-7A43.75,43.75,0,0,0,47,49.72c-.65-.17-1.31-.29-2-.46,0,.77,0,1.45,0,2.13a4.21,4.21,0,0,1-1.68,3.42,9.8,9.8,0,0,1-4.22,2c-.9.2-1.82.33-2.74.5ZM25,49.24c-.41.08-.72.13-1,.21A45.7,45.7,0,0,0,9.21,55.3a15.71,15.71,0,0,0-5.35,5.45,8.22,8.22,0,0,0-1.11,3.59H33.61V57.28l-.43-.06a13.62,13.62,0,0,1-5.44-1.64c-1.76-1-2.93-2.44-2.76-4.64C25,50.41,25,49.89,25,49.24ZM48.73,20.63c-.18-1.17-.28-2.14-.49-3.09a10.5,10.5,0,0,0-4.08-6.71A11.87,11.87,0,0,0,36.07,9c-.56,0-1.13.06-1.7.05-1,0-2-.13-3.06-.06-6.54.4-9.66,5.38-9.84,11.33.84-.1,1.68-.17,2.5-.32a13.18,13.18,0,0,0,6.79-2.95c1.09-1,1.36-1,2.64-.28a26.08,26.08,0,0,0,9.92,3.43C45.07,20.46,46.84,20.5,48.73,20.63ZM18.33,31.24A25.31,25.31,0,0,1,17,28.51c-1-2.66-.77-5.14,1.39-7.23a1.4,1.4,0,0,0,.29-.72c.32-1.72.48-3.48,1-5.15a12.33,12.33,0,0,1,11.72-9c1.32,0,2.63.07,4,.09A36.74,36.74,0,0,1,40,6.55a11.9,11.9,0,0,1,10.3,8.66,44.91,44.91,0,0,1,1,5.14,1.84,1.84,0,0,0,.32.93A6.16,6.16,0,0,1,53.16,28a28.72,28.72,0,0,1-1.47,3.23,5.38,5.38,0,0,0,3.39-4.09,13,13,0,0,0-.4-5.74,1.75,1.75,0,0,0-.91-1.27,1.67,1.67,0,0,1-.88-1.63,20.4,20.4,0,0,0-.28-3.6c-1.13-5.57-4.29-9.43-9.8-11.1a26.55,26.55,0,0,0-16,.14,13.1,13.1,0,0,0-8.49,7.93,15.84,15.84,0,0,0-1.18,6.53c0,.62,0,1.26-.63,1.55A2.57,2.57,0,0,0,15.2,22c-.09.4-.17.8-.23,1.21a9.36,9.36,0,0,0,.35,5A5,5,0,0,0,18.33,31.24ZM42.37,47a19.11,19.11,0,0,1-14.75,0c0,1.28.07,2.48,0,3.68a2.51,2.51,0,0,0,1.52,2.57,12.8,12.8,0,0,0,7.56,1.25A9.88,9.88,0,0,0,41,53.22c.68-.42,1.34-.91,1.36-1.83C42.38,50,42.37,48.57,42.37,47ZM39,39.21a1.16,1.16,0,0,0-1.2-1.13,1.14,1.14,0,0,0-1.12,1.21,1.19,1.19,0,0,0,1.16,1.12A1.21,1.21,0,0,0,39,39.21Z"/></g></g></g></g></svg>