<svg xmlns="http://www.w3.org/2000/svg" viewBox="0 0 87.76 54.88"><defs><style>.cls-1{isolation:isolate;}.cls-2{mix-blend-mode:multiply;}.cls-3{fill:#db3130;}</style></defs><title>Recurso 11</title><g class="cls-1"><g id="Capa_2" data-name="Capa 2"><g id="Layer_1" data-name="Layer 1"><g class="cls-2"><path class="cls-3" d="M0,1.36A2.12,2.12,0,0,1,2.15,0,82,82,0,0,1,15.3,1.73,27.59,27.59,0,0,1,20,3.28c1.85.82,2.22,1.62,1.82,3.36a3.51,3.51,0,0,0,0,.68h.86c4.31,0,8.63,0,12.94,0A2,2,0,0,0,36.79,7c4.37-3.47,9.09-3.9,14.15-1.76,3.44,1.45,6.9,2.86,10.36,4.28.31.13.64.24.87.32a5.14,5.14,0,0,1,.44-1.67A3,3,0,0,1,64,7.21,49.74,49.74,0,0,1,77.8,4.11c2.47-.23,5-.31,7.44-.44,1.81-.1,2.53.59,2.53,2.38q0,15.9,0,31.79c0,1.7-.67,2.37-2.39,2.38H75.85c-1.94,0-2.29-.26-2.88-2.1-.09-.26-.2-.52-.33-.86-.89.59-1.73,1.13-2.53,1.71a.87.87,0,0,0-.22.65,6.06,6.06,0,0,1-5.69,6.57,1.28,1.28,0,0,0-.83.55,7,7,0,0,1-6.73,3.37.87.87,0,0,0-1,.51c-1.49,2.54-4.78,4-7.25,3.09a.73.73,0,0,0-.56,0c-2.63,1.64-5.34,1.26-8,.12a21.13,21.13,0,0,1-4.54-2.69c-5.46-4.28-10.86-8.63-16.24-13-1.48-1.2-2.81-2.59-4.21-3.89,0,.1-.16.39-.26.7a1.9,1.9,0,0,1-2.15,1.55c-3.43,0-6.86,0-10.28,0A2.16,2.16,0,0,1,0,35.13ZM44.63,51.11c-2.51-2.59-4.92-5.07-7.31-7.56A1.85,1.85,0,1,1,39.94,41c1,1,1.91,2,2.91,3,1.91,1.89,3.82,3.77,5.77,5.61a1.87,1.87,0,0,0,2.7.22,11.88,11.88,0,0,0,1.55-1.5l-8-8.26a4.43,4.43,0,0,1-.69-.87,1.76,1.76,0,0,1,1.33-2.64,2.17,2.17,0,0,1,1.92.89c2.76,2.77,5.49,5.57,8.3,8.29a2.86,2.86,0,0,0,4.55-1.17c-.07-.08-.14-.17-.21-.25q-4.86-4.89-9.72-9.78a4.22,4.22,0,0,1-.73-.94A1.73,1.73,0,0,1,50,31.56a1.7,1.7,0,0,1,2.06-.22,4.7,4.7,0,0,1,.91.77q4.9,4.91,9.8,9.82a1.64,1.64,0,0,0,2.31.24,2.17,2.17,0,0,0,.76-3.24,24.22,24.22,0,0,0-5.41-5.8C55.53,29,50.6,24.87,45.66,20.76a1.09,1.09,0,0,0-.88-.13c-.81.26-1.57.72-2.39.9a3.37,3.37,0,0,0-1.9,1.16,8.82,8.82,0,0,1-8.31,3.2c-3.68-.54-5.53-2.9-4.75-6.28a14.86,14.86,0,0,1,1.46-3.89c.93-1.65,2.11-3.14,3.19-4.7h-11c-.22,1-.39,2.09-.66,3.11-1.34,5.07-2.72,10.13-4.06,15.2a1.24,1.24,0,0,0,.11,1c2.34,2.38,4.58,4.89,7.13,7C28,41,32.57,44.45,37.07,48a23.63,23.63,0,0,0,3.12,2.1A7.43,7.43,0,0,0,44.63,51.11Zm23.61-15.3c.79-.53,1.57-1.11,2.41-1.59a1.11,1.11,0,0,0,.57-1.62c-1.87-5-3.78-10-5.45-15.12a5.7,5.7,0,0,0-4-4C57.36,12,53.06,10,48.69,8.3a8.51,8.51,0,0,0-8,.46,27.91,27.91,0,0,0-7.43,6.76,11.28,11.28,0,0,0-2.35,4.89c-.11.64-.13,1.29.64,1.57a4.69,4.69,0,0,0,4.51-.32,24.26,24.26,0,0,0,2.4-2.28,4.52,4.52,0,0,1,1.32-1c1.59-.6,3.25-1,4.84-1.64a2.28,2.28,0,0,1,2.65.5c1.38,1.28,2.8,2.52,4.23,3.74C57.18,25.79,63.29,30.09,68.24,35.81Zm-1.6-25.7c.45,1.05.91,2,1.27,3Q72,24.43,76.06,35.79a.94.94,0,0,0,1.07.77c1.57,0,3.14,0,4.71,0h2.21V7.34A61.35,61.35,0,0,0,66.64,10.11ZM11.42,32.87c2.14-5.25,6.77-23.68,6.66-26.58-4.64-1.56-9.49-2-14.38-2.5V32.87Z"/></g></g></g></g></svg>