<svg xmlns="http://www.w3.org/2000/svg" viewBox="0 0 44.76 48.01"><defs><style>.cls-1{isolation:isolate;}.cls-2{mix-blend-mode:multiply;}.cls-3{fill:#db3130;}</style></defs><title>Recurso 12</title><g class="cls-1"><g id="Capa_2" data-name="Capa 2"><g id="Layer_1" data-name="Layer 1"><g id="kgJarR" class="cls-2"><path class="cls-3" d="M32,48a19.71,19.71,0,0,1-10.67-2.95A49.57,49.57,0,0,1,1.48,21.77,17,17,0,0,1,1.1,8.83,14,14,0,0,1,5.56,2.71c.72-.57,1.38-1.2,2.09-1.78,1.47-1.18,3-1.31,4.36,0a19.85,19.85,0,0,1,5.75,9.52,3.9,3.9,0,0,1-1.24,3.8,32.08,32.08,0,0,1-3,2.54c-1.71,1.28-2.38,2.67-1.57,4.66A27.3,27.3,0,0,0,15,27.06a28,28,0,0,0,7.33,7.34c2.89,1.87,4.36,1.68,6.74-.72.62-.62,1.3-1.17,2-1.75a4.47,4.47,0,0,1,5.38-.69,23.14,23.14,0,0,1,7.42,6.23c1.37,1.72,1.1,3.39-.5,4.86-2.35,2.16-4.69,4.34-7.94,5.07C34.1,47.7,32.72,47.89,32,48Z"/></g></g></g></g></svg>